<?xml version="1.0" encoding="UTF-8"?>
<!-- Image Reveal icon — original artwork, MIT license (see public/icons/LICENSE) -->
<svg xmlns="http://www.w3.org/2000/svg" viewBox="0 0 128 128" width="128" height="128">
  <rect width="128" height="128" fill="#1e40af"/>
  <rect x="18" y="22" width="92" height="84" rx="8" fill="#e2e8f0"/>
  <rect x="20" y="24" width="88" height="18" rx="6" fill="#94a3b8"/>
  <rect x="28" y="30" width="5" height="5" rx="1" fill="#64748b"/>
  <rect x="36" y="30" width="5" height="5" rx="1" fill="#64748b"/>
  <rect x="44" y="30" width="5" height="5" rx="1" fill="#64748b"/>
  <rect x="22" y="44" width="84" height="58" rx="5" fill="#334155"/>
  <circle cx="64" cy="68" r="34" fill="none" stroke="#1e40af" stroke-width="5"/>
  <circle cx="64" cy="68" r="32" fill="#7dd3fc"/>
  <rect x="32" y="68" width="64" height="32" fill="#34d399"/>
  <circle cx="64" cy="68" r="32" fill="none" stroke="#f8fafc" stroke-width="4"/>
  <ellipse cx="52" cy="58" rx="8" ry="6" fill="#ffffff" opacity="0.45"/>
  <rect x="88" y="92" width="10" height="28" rx="5" transform="rotate(45 93 106)" fill="#f1f5f9"/>
  <rect x="88" y="92" width="10" height="28" rx="5" transform="rotate(45 93 106)" fill="none" stroke="#475569" stroke-width="1"/>
</svg>
